<svg width="64" height="64" xmlns="http://www.w3.org/2000/svg">
 <clipPath id="a">
  <path id="svg_1" d="m959.4,500l-279.6,279.7l279.6,279.7l-319.5,0l-119.9,-119.9l-159.8,-159.8l279.7,-279.7l319.5,0zm-319.5,-479.3l-519.3,519.3l159.8,159.8l679,-679.1l-319.5,0z"/>
 </clipPath>

 <clipPath id="b">
  <path id="svg_2" d="m959.4,500l-279.6,279.7l279.6,279.7l-319.5,0l-119.9,-119.9l-159.8,-159.8l279.7,-279.7l319.5,0zm-319.5,-479.3l-519.3,519.3l159.8,159.8l679,-679.1l-319.5,0z"/>
 </clipPath>
 <clipPath id="c">
  <path id="svg_3" d="m959.4,500l-279.6,279.7l279.6,279.7l-319.5,0l-119.9,-119.9l-159.8,-159.8l279.7,-279.7l319.5,0zm-319.5,-479.3l-519.3,519.3l159.8,159.8l679,-679.1l-319.5,0z"/>
 </clipPath>
 <clipPath id="d">
  <path id="svg_4" d="m959.4,500l-279.6,279.7l279.6,279.7l-319.5,0l-119.9,-119.9l-159.8,-159.8l279.7,-279.7l319.5,0zm-319.5,-479.3l-519.3,519.3l159.8,159.8l679,-679.1l-319.5,0z"/>
 </clipPath>
 <clipPath id="f">
  <path id="svg_5" d="m959.4,500l-279.6,279.7l279.6,279.7l-319.5,0l-119.9,-119.9l-159.8,-159.8l279.7,-279.7l319.5,0zm-319.5,-479.3l-519.3,519.3l159.8,159.8l679,-679.1l-319.5,0z"/>
 </clipPath>
 <g>
  <title>background</title>
  <rect fill="none" id="canvas_background" height="402" width="582" y="-1" x="-1"/>
 </g>
 <g>
  <title>Layer 1</title>
  <g id="svg_6" transform="matrix(0.0616154,0,0,0.06161548,-1.430818,-1.2754) ">
   <g id="svg_7" clip-path="url(#a)">
    <path id="svg_8" fill="#387586" d="m360.3,779.7l159.7,159.8l439.4,-439.5l-319.5,0l-279.6,279.7z"/>
   </g>
   <path id="svg_9" fill="#387586" d="m639.9,20.193671l319.5,0l-679,679.1l-159.8,-159.8l519.3,-519.3z" clip-path="url(#b)"/>
   <path id="svg_10" fill="#387586" d="m519.493671,938.487341l119.9,119.8l319.5,0l-279.6,-279.6l-159.8,159.8z" clip-path="url(#c)"/>
   <path id="svg_11" fill="#387586" d="m757,857.4l-77.2,-77.7l-159.8,159.8l237,-82.1z" clip-path="url(#d)"/>
   <g id="svg_12" clip-path="url(#f)">
    <path id="svg_13" fill="#387586" d="m360.281694,779.64456l159.8046,-159.8046l159.8046,159.8046l-159.8046,159.8046l-159.8046,-159.8046z"/>
   </g>
  </g>
 </g>
</svg>